<svg xmlns="http://www.w3.org/2000/svg" xmlns:xlink="http://www.w3.org/1999/xlink" xmlns:fi="http://pattern.flaticon.com/" x="0" y="0" width="700" height="350" viewBox="0 0 700 350"><rect x="0px" y="0px" width="100%" height="100%" opacity="1" fill="#ffffff"/><defs><g transform="matrix(0.1171875 0 0 0.1171875 144 173)" id="L1_11"><path d="M243.84,243.985c-6.63,6.682-6.588,17.51,0.094,24.132c3.311,3.294,7.671,4.932,12.023,4.932     c4.343,0,8.695-1.638,11.998-4.924c3.243-3.208,5.043-7.492,5.06-12.058c0.017-4.557-1.741-8.841-4.949-12.083     c-3.209-3.243-7.484-5.035-12.041-5.052c-0.026,0-0.051,0-0.077,0c-4.531,0-8.798,1.758-12.015,4.949     C243.917,243.9,243.849,243.968,243.84,243.985z" fill="#ededed"/><path d="M273.963,86.323c-2.398-0.222-4.804,0.521-6.605,2.142c-1.8,1.613-2.825,3.917-2.825,6.34v112.981     c0,3.618,2.287,6.844,5.692,8.047c16.99,6.007,28.424,22.153,28.467,40.764c0.102,1.493,0.102,3.012,0,4.514     c-0.23,3.26,1.417,6.357,4.232,7.987l98.389,56.917c1.314,0.768,2.79,1.152,4.275,1.152c0.922,0,1.835-0.154,2.722-0.444     c2.33-0.785,4.207-2.526,5.154-4.796c6.4-15.317,10.539-31.445,12.271-47.94c4.796-45.338-8.354-89.822-37.018-125.269     C360.055,113.28,319.3,91.119,273.963,86.323z M408.781,272.196c-1.229,11.605-3.772,23.023-7.578,34.039l-85.41-49.408     c-0.017-0.29-0.034-0.572-0.051-0.828c-0.026-23.159-13.517-44.109-34.133-53.896v-97.519     c37.001,6.195,70.059,25.446,93.85,54.869C401.254,191.352,413.09,231.39,408.781,272.196z" fill="#ededed"/><path d="M213.692,261.214c-2.577-19.755,9.216-38.835,28.041-45.363c3.43-1.195,5.734-4.429,5.734-8.064V94.805     c0-2.423-1.033-4.727-2.825-6.34c-1.801-1.613-4.215-2.372-6.605-2.142C151.006,95.531,85.35,168.482,85.333,256     c-0.008,23.62,4.796,46.558,14.293,68.19c0.981,2.253,2.884,3.959,5.214,4.702c0.845,0.273,1.724,0.41,2.594,0.41     c1.527,0,3.038-0.41,4.378-1.212l97.792-58.453C212.523,267.895,214.127,264.585,213.692,261.214z M111.625,308.326     c-6.135-16.777-9.233-34.338-9.224-52.318c0-0.009,0-0.009,0-0.009c0.017-75.571,54.4-139.076,128-151.424v97.485     c-21.333,10.018-34.859,32.068-34.099,55.646L111.625,308.326z" fill="#ededed"/><path d="M393.156,341.683l-97.707-55.552c-3.234-1.835-7.313-1.365-10.052,1.186c-16.35,15.317-41.967,15.317-58.308,0     c-2.765-2.594-6.895-3.055-10.155-1.126l-96.853,56.917c-2.065,1.212-3.524,3.243-4.019,5.581     c-0.495,2.338,0.008,4.779,1.408,6.733c31.881,44.621,83.627,71.245,138.453,71.245c0.085-0.017,0.179,0,0.282,0     c55.586,0,107.81-27.162,139.716-72.67c1.382-1.971,1.869-4.429,1.34-6.776C396.74,344.883,395.247,342.869,393.156,341.683z      M256.205,409.6c-0.06,0-0.128,0-0.196,0H256c-0.026,0-0.051,0-0.077,0c-46.191,0-89.967-21.018-118.895-56.644l83.379-48.998     c21.171,15.88,50.628,15.863,71.765-0.051l84.147,47.838C347.307,388.139,303.078,409.6,256.205,409.6z" fill="#ededed"/><path d="M504.977,224.461l-42.035-7.569l-2.423-9.079c-1.877-7.014-3.2-11.998-5.768-21.444l32.631-27.639     c3.149-2.662,3.934-7.202,1.877-10.778l-23.04-39.936c-2.057-3.567-6.409-5.154-10.266-3.763l-40.226,14.396L393.31,96.299     l14.089-40.235c1.365-3.866-0.23-8.158-3.78-10.206l-40.013-23.125c-3.567-2.082-8.124-1.271-10.786,1.877l-27.571,32.64     l-30.575-8.201l-7.578-42.027C286.362,2.961,282.82,0,278.699,0h-46.165c-4.13,0-7.663,2.961-8.397,7.031l-7.569,42.027     l-30.583,8.201l-27.563-32.64c-2.671-3.157-7.219-3.959-10.795-1.886l-40.021,23.125c-3.558,2.057-5.146,6.366-3.763,10.249     l14.319,40.235l-22.238,22.306L55.706,104.26c-3.883-1.382-8.209,0.196-10.266,3.772L22.4,147.968     c-2.057,3.567-1.28,8.098,1.869,10.769l32.572,27.657L48.7,216.909l-41.694,7.569C2.953,225.22,0,228.753,0,232.875v46.251     c0,4.13,2.961,7.663,7.031,8.397l42.112,7.578l8.132,30.498l-32.58,27.657c-3.14,2.671-3.925,7.202-1.869,10.778l23.04,39.936     c2.074,3.575,6.409,5.163,10.283,3.763l40.158-14.447l21.862,22.306l-14.49,40.269c-1.399,3.883,0.188,8.218,3.755,10.283     l40.021,23.125c3.584,2.057,8.124,1.263,10.795-1.886l27.563-32.64l30.583,8.209l7.569,42.035     c0.734,4.053,4.267,7.014,8.397,7.014h46.165c4.122,0,7.663-2.961,8.405-7.014l7.578-42.035l30.583-8.209l27.563,32.64     c2.654,3.14,7.194,3.951,10.786,1.886l40.021-23.125c3.576-2.065,5.154-6.4,3.763-10.283l-14.473-40.209l22.383-22.391     l40.218,14.473c3.866,1.399,8.218-0.188,10.283-3.763l23.04-39.936c2.056-3.576,1.271-8.107-1.877-10.778l-32.64-27.639     c2.714-9.984,4.045-14.976,6.093-22.63l2.099-7.876l42.607-7.586c4.07-0.725,7.04-4.267,7.04-8.397v-46.251     C512,228.745,509.039,225.212,504.977,224.461z M494.933,271.974l-40.909,7.287c-3.268,0.58-5.888,2.995-6.75,6.195     l-3.507,13.133c-2.364,8.866-3.772,14.148-7.492,27.793c-0.879,3.2,0.188,6.605,2.714,8.747l31.351,26.547l-15.915,27.58     l-38.596-13.892c-3.132-1.101-6.596-0.333-8.926,1.997l-30.037,30.046c-2.338,2.338-3.115,5.82-1.997,8.926l13.892,38.588     l-27.665,15.991l-26.462-31.326c-2.133-2.517-5.504-3.618-8.721-2.731l-41.054,11.008c-3.191,0.853-5.606,3.473-6.195,6.724     l-7.27,40.346h-31.898l-7.262-40.346c-0.589-3.251-2.995-5.862-6.187-6.724l-41.045-11.008c-3.183-0.87-6.596,0.213-8.73,2.731     l-26.453,31.326l-27.665-15.991l13.884-38.588c1.101-3.081,0.358-6.528-1.937-8.866l-29.44-30.046     c-2.338-2.381-5.845-3.157-8.986-2.057l-38.596,13.892l-15.923-27.588l31.266-26.539c2.517-2.133,3.575-5.521,2.722-8.713     l-10.923-40.96c-0.862-3.191-3.482-5.615-6.733-6.195l-40.422-7.27V240l40.013-7.262c3.243-0.589,5.862-2.995,6.716-6.187     l10.923-40.96c0.853-3.191-0.205-6.579-2.722-8.713L40.73,150.332l15.923-27.597l38.605,13.815     c3.098,1.118,6.588,0.341,8.917-2.005l29.867-29.952c2.33-2.33,3.098-5.794,1.997-8.892l-13.747-38.613l27.691-16l26.453,31.317     c2.133,2.534,5.53,3.593,8.73,2.739l41.045-11.008c3.183-0.862,5.598-3.482,6.187-6.733l7.27-40.337h31.898l7.262,40.329     c0.597,3.26,3.004,5.879,6.195,6.733l41.045,11.008c3.217,0.87,6.596-0.205,8.721-2.731l26.462-31.326l27.716,16.017     l-13.525,38.639c-1.092,3.106-0.299,6.554,2.022,8.866l30.037,29.952c2.33,2.33,5.803,3.098,8.9,1.988l38.596-13.815     l15.923,27.588l-31.343,26.547c-2.526,2.142-3.584,5.555-2.714,8.755c3.541,13.013,4.983,18.423,7.168,26.598l3.831,14.328     c0.853,3.191,3.473,5.606,6.724,6.195l40.346,7.27V271.974z" fill="#ededed"/></g><g transform="matrix(0.11718544363975525 0 0 0.11718544363975525 310.99999799731904 115)" id="L1_12"><path d="M498.072,15.382C487.883,5.474,471.982,4.878,461,14.077L251.761,193.134c-50.483,43.33-174.137,187.83-179.38,193.968    c-2.89,3.376-2.694,8.415,0.452,11.561l34.104,34.104c1.654,1.654,3.845,2.498,6.036,2.498c1.833,0,3.675-0.588,5.227-1.799    c6.864-5.337,168.834-131.549,229.752-202.921l150.844-176.72C508.985,42.904,508.712,26.056,498.072,15.382z M486.067,42.478    L334.976,219.479c-53.331,62.488-191.07,172.073-221.32,195.887l-23.174-23.174c24.342-28.264,128.607-148.542,172.38-186.107    L472.024,27.097c4.169-3.504,10.257-3.274,14.06,0.418C490.117,31.564,490.219,38.019,486.067,42.478z" fill="#f0f0f0"/><path d="M119.036,416.227l-29.245-29.586c-2.438-2.447-6.105-3.206-9.285-1.901l-6.906,2.814    C30.023,405.322,1.964,447.228,2.126,494.266v9.208c0,2.268,0.904,4.434,2.507,6.036s3.76,2.49,6.019,2.49    c0.017,0,0.026,0,0.034,0.009c51.438-0.205,96.575-35.068,109.739-84.732l0.767-2.814    C121.994,421.53,121.167,418.393,119.036,416.227z M19.178,494.539v-0.307c-0.136-40.073,23.754-75.754,60.859-90.888l1.629-0.665    l21.776,22.04C92.4,463.24,58.663,490.882,19.178,494.539z" fill="#f0f0f0"/><rect x="215px" y="245px" width="17px" height="72px" transform="matrix(0.7071 -0.7071 0.7071 0.7071 -133.6941 240.7862)" fill="#f0f0f0"/><rect x="189px" y="271px" width="17px" height="72px" transform="matrix(0.7071 -0.7071 0.7071 0.7071 -159.2879 230.187)" fill="#f0f0f0"/><path d="M509.062,281.856c-12.874-59.273-41.232-114.343-82.004-159.267l-12.619,11.468    c38.768,42.707,65.728,95.066,77.928,151.261c1.177,5.934,0.205,12.124-2.745,17.41c-6.855,12.32-22.449,16.771-34.838,9.873    l-17.538-9.617c-15.952-8.833-36.065-5.994-48.846,6.778c-13.028,12.567-16.251,32.527-7.895,48.471l34.88,68.217    c0.887,1.731,1.663,3.53,2.302,5.38c7.75,22.185-3.99,46.552-26.013,54.251c-76.922,25.067-177.812-4.033-257.027-74.245    l-11.306,12.755c63.426,56.221,140.484,87.341,210.117,87.341c22.21,0,43.671-3.172,63.673-9.694    c31.061-10.862,47.499-44.967,36.654-76.036c-0.912-2.583-1.978-5.099-3.223-7.52l-34.914-68.285    c-4.902-9.362-3.018-21.025,4.698-28.469c7.529-7.529,19.295-9.2,28.665-4.007l17.521,9.609    c20.556,11.433,46.552,4.024,57.986-16.515C509.42,302.208,511.04,291.9,509.062,281.856z" fill="#f0f0f0"/><path d="M52.285,50.595c-76.317,76.402-64.048,218.455,28.537,330.428l13.139-10.879C7.012,264.991-5.718,132.795,64.341,62.65    C136.25-9.156,274.969,7.137,380.164,99.764l11.271-12.798C277.647-13.232,131.85-28.869,52.285,50.595z" fill="#f0f0f0"/><path d="M274.961,51.592c-23.506,0-42.63,19.124-42.63,42.63s19.124,42.63,42.63,42.63c23.506,0,42.63-19.124,42.63-42.63    S298.467,51.592,274.961,51.592z M274.961,119.801c-14.102,0-25.578-11.476-25.578-25.578c0-14.102,11.476-25.578,25.578-25.578    c14.111,0,25.578,11.476,25.578,25.578C300.539,108.325,289.063,119.801,274.961,119.801z" fill="#f0f0f0"/><path d="M164.122,34.54c-23.506,0-42.63,19.124-42.63,42.63s19.124,42.63,42.63,42.63s42.63-19.124,42.63-42.63    S187.628,34.54,164.122,34.54z M164.122,102.749c-14.102,0-25.578-11.476-25.578-25.578s11.476-25.578,25.578-25.578    c14.111,0,25.578,11.476,25.578,25.578S178.224,102.749,164.122,102.749z" fill="#f0f0f0"/><path d="M87.387,111.275c-23.506,0-42.63,19.124-42.63,42.63c0,23.506,19.124,42.63,42.63,42.63    c23.506,0,42.63-19.124,42.63-42.63C130.017,130.399,110.893,111.275,87.387,111.275z M87.387,179.483    c-14.102,0-25.578-11.476-25.578-25.578c0-14.102,11.476-25.578,25.578-25.578c14.111,0,25.578,11.476,25.578,25.578    C112.965,168.007,101.489,179.483,87.387,179.483z" fill="#f0f0f0"/><path d="M104.439,213.588c-23.506,0-42.63,19.124-42.63,42.63s19.124,42.63,42.63,42.63c23.506,0,42.63-19.124,42.63-42.63    S127.946,213.588,104.439,213.588z M104.439,281.796c-14.102,0-25.578-11.476-25.578-25.578c0-14.102,11.476-25.578,25.578-25.578    c14.111,0,25.578,11.476,25.578,25.578C130.017,270.32,118.541,281.796,104.439,281.796z" fill="#f0f0f0"/><path d="M249.383,367.057c-23.506,0-42.63,19.124-42.63,42.63c0,23.506,19.124,42.63,42.63,42.63    c23.506,0,42.63-19.124,42.63-42.63C292.013,386.181,272.889,367.057,249.383,367.057z M249.383,435.266    c-14.102,0-25.578-11.476-25.578-25.578c0-14.102,11.476-25.578,25.578-25.578c14.111,0,25.578,11.476,25.578,25.578    C274.961,423.79,263.485,435.266,249.383,435.266z" fill="#f0f0f0"/><path d="M407.115,205.062c-21.153,0-38.367,17.214-38.367,38.367s17.214,38.367,38.367,38.367    c21.162,0,38.367-17.214,38.367-38.367S428.268,205.062,407.115,205.062z M407.115,264.744c-11.757,0-21.315-9.566-21.315-21.315    c0-11.749,9.558-21.315,21.315-21.315c11.758,0,21.315,9.566,21.315,21.315C428.43,255.178,418.873,264.744,407.115,264.744z" fill="#f0f0f0"/></g><g transform="matrix(0.0967150703668472 0.030396166656109766 -0.030396166656109766 0.0967150703668472 2.022258431252709 280.45942489839376)" id="L1_13"><path d="M460.768,0.214c-13.517,0.051-26.24,5.325-35.866,14.874L45.169,394.821c-0.998,0.998-1.732,2.227-2.142,3.584    l-25.6,85.333c-0.862,2.867-0.154,5.973,1.86,8.192c1.638,1.801,3.934,2.79,6.315,2.79c0.555,0,1.118-0.06,1.673-0.171    l85.333-17.067c1.681-0.333,3.226-1.169,4.429-2.398L497.564,86.273c9.199-9.489,14.328-21.999,14.438-35.217    c0-0.051,0-0.102,0-0.154C511.729,22.956,488.749,0.214,460.768,0.214z M485.336,74.378L106.677,461.27l-68.821,13.764    l20.898-69.666L436.943,27.18c6.4-6.34,14.882-9.865,23.859-9.899c18.611,0,33.903,15.121,34.133,33.715    C494.842,59.786,491.428,68.097,485.336,74.378z" fill="#ededed"/><path d="M31.635,480.155c-3.337-3.337-8.73-3.337-12.066,0L2.502,497.221c-3.336,3.337-3.336,8.73,0,12.066    c1.664,1.664,3.849,2.5,6.033,2.5c2.185,0,4.369-0.836,6.033-2.5l17.067-17.067C34.972,488.884,34.972,483.491,31.635,480.155z" fill="#ededed"/><path d="M110.935,426.454H93.869v-17.067c0-4.719-3.823-8.533-8.533-8.533h-25.6c-4.71,0-8.533,3.814-8.533,8.533    s3.823,8.533,8.533,8.533h17.067v17.067c0,4.719,3.823,8.533,8.533,8.533h17.067v25.6c0,4.719,3.823,8.533,8.533,8.533    s8.533-3.814,8.533-8.533v-34.133C119.469,430.269,115.646,426.454,110.935,426.454z" fill="#ededed"/><path d="M475.369,96.155l-59.733-59.733c-3.337-3.337-8.73-3.337-12.066,0c-3.337,3.337-3.337,8.73,0,12.066l59.733,59.733    c1.664,1.664,3.849,2.5,6.033,2.5c2.185,0,4.369-0.836,6.033-2.5C478.705,104.884,478.705,99.491,475.369,96.155z" fill="#ededed"/><path d="M449.769,121.755l-59.733-59.733c-3.337-3.337-8.73-3.337-12.066,0c-3.336,3.337-3.336,8.73,0,12.066l59.733,59.733    c1.664,1.664,3.849,2.5,6.033,2.5c2.185,0,4.369-0.836,6.033-2.5C453.105,130.484,453.105,125.091,449.769,121.755z" fill="#ededed"/><path d="M424.169,147.355l-59.733-59.733c-3.337-3.337-8.73-3.337-12.066,0c-3.337,3.336-3.337,8.73,0,12.066l59.733,59.733    c1.664,1.664,3.849,2.5,6.033,2.5c2.185,0,4.369-0.836,6.033-2.5C427.505,156.084,427.505,150.691,424.169,147.355z" fill="#ededed"/></g><g transform="matrix(0.1171875 0 0 0.1171875 120 20.00000041484833)" id="L1_14"><path d="M430.933,0H89.6C66.074,0,46.933,19.14,46.933,42.667v204.8c0,23.526,19.14,42.667,42.667,42.667h341.333    c23.526,0,42.667-19.14,42.667-42.667v-204.8C473.6,19.14,454.46,0,430.933,0z M456.533,247.467c0,14.114-11.486,25.6-25.6,25.6    H89.6c-14.114,0-25.6-11.486-25.6-25.6v-204.8c0-14.114,11.486-25.6,25.6-25.6h341.333c14.114,0,25.6,11.486,25.6,25.6V247.467z" fill="#f0f0f0"/><path d="M319.829,365.261l-17.067-85.333c-0.794-3.985-4.292-6.861-8.363-6.861h-68.267c-4.07,0-7.569,2.876-8.363,6.861    l-17.067,85.333c-0.503,2.509,0.145,5.111,1.766,7.083c1.621,1.971,4.036,3.123,6.596,3.123h102.4c2.56,0,4.975-1.152,6.596-3.123    C319.676,370.372,320.333,367.77,319.829,365.261z M219.477,358.4l13.653-68.267h54.281l13.653,68.267H219.477z" fill="#f0f0f0"/><rect x="183px" y="358px" width="153px" height="17px" fill="#f0f0f0"/><rect x="55px" y="221px" width="409px" height="17px" fill="#f0f0f0"/><path d="M439.467,375.467c-18.825,0-34.133,15.309-34.133,34.133v34.133c0,18.825,15.309,34.133,34.133,34.133    c18.825,0,34.133-15.309,34.133-34.133V409.6C473.6,390.775,458.291,375.467,439.467,375.467z M456.533,443.733    c0,9.412-7.654,17.067-17.067,17.067c-9.412,0-17.067-7.654-17.067-17.067V409.6c0-9.412,7.654-17.067,17.067-17.067    c9.412,0,17.067,7.654,17.067,17.067V443.733z" fill="#f0f0f0"/><path d="M379.733,392.533H140.8c-4.71,0-8.533,3.814-8.533,8.533v102.4c0,4.719,3.823,8.533,8.533,8.533h238.933    c4.719,0,8.533-3.814,8.533-8.533v-102.4C388.267,396.348,384.452,392.533,379.733,392.533z M371.2,494.933H149.333V409.6H371.2    V494.933z" fill="#f0f0f0"/><rect x="200px" y="460px" width="119px" height="17px" fill="#f0f0f0"/><rect x="166px" y="460px" width="17px" height="17px" fill="#f0f0f0"/><rect x="166px" y="426px" width="17px" height="17px" fill="#f0f0f0"/><rect x="200px" y="426px" width="17px" height="17px" fill="#f0f0f0"/><rect x="234px" y="426px" width="17px" height="17px" fill="#f0f0f0"/><rect x="268px" y="426px" width="17px" height="17px" fill="#f0f0f0"/><rect x="302px" y="426px" width="17px" height="17px" fill="#f0f0f0"/><rect x="337px" y="426px" width="17px" height="17px" fill="#f0f0f0"/><rect x="337px" y="460px" width="17px" height="17px" fill="#f0f0f0"/><path d="M174.933,281.6v17.067c0,4.71-3.831,8.533-8.533,8.533H89.6c-14.114,0-25.6,11.486-25.6,25.6    c0,14.114,11.486,25.6,25.6,25.6h8.533c4.702,0,8.533,3.823,8.533,8.533s-3.831,8.533-8.533,8.533H29.867    c-14.114,0-25.6,11.486-25.6,25.6c0,14.114,11.486,25.6,25.6,25.6H140.8V409.6H29.867c-4.702,0-8.533-3.823-8.533-8.533    s3.831-8.533,8.533-8.533h68.267c14.114,0,25.6-11.486,25.6-25.6s-11.486-25.6-25.6-25.6H89.6c-4.702,0-8.533-3.823-8.533-8.533    c0-4.71,3.831-8.533,8.533-8.533h76.8c14.114,0,25.6-11.486,25.6-25.6V281.6H174.933z" fill="#f0f0f0"/><path d="M482.133,307.2h-128c-4.71,0-8.533-3.823-8.533-8.533V281.6h-17.067v17.067c0,14.114,11.486,25.6,25.6,25.6h128    c4.71,0,8.533,3.823,8.533,8.533c0,4.71-3.823,8.533-8.533,8.533h-25.6c-14.114,0-25.6,11.486-25.6,25.6V384H448v-17.067    c0-4.71,3.823-8.533,8.533-8.533h25.6c14.114,0,25.6-11.486,25.6-25.6C507.733,318.686,496.247,307.2,482.133,307.2z" fill="#f0f0f0"/></g></defs><g fi:class="KUsePattern"><pattern id="pattern_L1_11" width="350" height="350" patternUnits="userSpaceOnUse"><use xlink:href="#L1_11" x="-350" y="-350"/><use xlink:href="#L1_11" x="0" y="-350"/><use xlink:href="#L1_11" x="350" y="-350"/><use xlink:href="#L1_11" x="-350" y="0"/><use xlink:href="#L1_11" x="0" y="0"/><use xlink:href="#L1_11" x="350" y="0"/><use xlink:href="#L1_11" x="-350" y="350"/><use xlink:href="#L1_11" x="0" y="350"/><use xlink:href="#L1_11" x="350" y="350"/></pattern><rect x="0" y="0" width="100%" height="100%" fill="url(#pattern_L1_11)"/></g><g fi:class="KUsePattern"><pattern id="pattern_L1_12" width="350" height="350" patternUnits="userSpaceOnUse"><use xlink:href="#L1_12" x="-350" y="-350"/><use xlink:href="#L1_12" x="0" y="-350"/><use xlink:href="#L1_12" x="350" y="-350"/><use xlink:href="#L1_12" x="-350" y="0"/><use xlink:href="#L1_12" x="0" y="0"/><use xlink:href="#L1_12" x="350" y="0"/><use xlink:href="#L1_12" x="-350" y="350"/><use xlink:href="#L1_12" x="0" y="350"/><use xlink:href="#L1_12" x="350" y="350"/></pattern><rect x="0" y="0" width="100%" height="100%" fill="url(#pattern_L1_12)"/></g><g fi:class="KUsePattern"><pattern id="pattern_L1_13" width="350" height="350" patternUnits="userSpaceOnUse"><use xlink:href="#L1_13" x="-350" y="-350"/><use xlink:href="#L1_13" x="0" y="-350"/><use xlink:href="#L1_13" x="350" y="-350"/><use xlink:href="#L1_13" x="-350" y="0"/><use xlink:href="#L1_13" x="0" y="0"/><use xlink:href="#L1_13" x="350" y="0"/><use xlink:href="#L1_13" x="-350" y="350"/><use xlink:href="#L1_13" x="0" y="350"/><use xlink:href="#L1_13" x="350" y="350"/></pattern><rect x="0" y="0" width="100%" height="100%" fill="url(#pattern_L1_13)"/></g><g fi:class="KUsePattern"><pattern id="pattern_L1_14" width="350" height="350" patternUnits="userSpaceOnUse"><use xlink:href="#L1_14" x="-350" y="-350"/><use xlink:href="#L1_14" x="0" y="-350"/><use xlink:href="#L1_14" x="350" y="-350"/><use xlink:href="#L1_14" x="-350" y="0"/><use xlink:href="#L1_14" x="0" y="0"/><use xlink:href="#L1_14" x="350" y="0"/><use xlink:href="#L1_14" x="-350" y="350"/><use xlink:href="#L1_14" x="0" y="350"/><use xlink:href="#L1_14" x="350" y="350"/></pattern><rect x="0" y="0" width="100%" height="100%" fill="url(#pattern_L1_14)"/></g></svg>